# AST/ASF file generated using VICON BodyLanguage
# -----------------------------------------------
:version 1.10
:name VICON
:units
  mass 1.0
  length 0.45
  angle deg
:documentation
   .ast/.asf automatically generated from VICON data using
   VICON BodyBuilder and BodyLanguage model FoxedUp or BRILLIANT.MOD
:root
   order TX TY TZ RX RY RZ
   axis XYZ
   position 0 0 0  
   orientation 0 0 0 
:bonedata
  begin
     id 1 
     name lhipjoint
     direction 0.660183 -0.676772 0.325788 
     length 2.75133 
     axis 0 0 0  XYZ
  end
  begin
     id 2 
     name lfemur
     direction 0.34202 -0.939693 0  
     length 7.70317  
     axis 0 0 20  XYZ
    dof rx ry rz
    limits (-160.0 20.0)
           (-70.0 70.0)
           (-60.0 70.0)
  end
  begin
     id 3 
     name ltibia
     direction 0.342105 -0.939662 0   
     length 7.18701   
     axis 0 0 20   XYZ
    dof rx
    limits (-10.0 170.0)
  end
  begin
     id 4 
     name lfoot
     direction 0.14163 -0.389126 0.910232   
     length 2.41719   
     axis -90 7.62852e-016 20   XYZ
    dof rx rz
    limits (-45.0 90.0)
           (-70.0 20.0)
  end
  begin
     id 5 
     name ltoes
     direction 1.53533e-011 -4.21926e-011 1   
     length 1.18611   
     axis -90 7.62852e-016 20   XYZ
    dof rx
    limits (-90.0 20.0)
  end
  begin
     id 6 
     name rhipjoint
     direction -0.6658 -0.67229 0.323631   
     length 2.76968  
     axis 0 0 0  XYZ 
  end
  begin
     id 7 
     name rfemur
     direction -0.34202 -0.939693 0   
     length 7.92547   
     axis 0 0 -20   XYZ
    dof rx ry rz
    limits (-160.0 20.0)
           (-70.0 70.0)
           (-70.0 60.0)
  end
  begin
     id 8 
     name rtibia
     direction -0.342022 -0.939692 0   
     length 7.22641   
     axis 0 0 -20   XYZ
    dof rx
    limits (-10.0 170.0)
 end
 begin
     id 9 
     name rfoot
     direction -0.105675 -0.29034 0.951071   
     length 2.48149  
     axis -90 -7.62852e-016 -20   XYZ
    dof rx rz
    limits (-45.0 90.0)
           (-20.0 70.0)
  end
  begin
     id 10 
     name rtoes
     direction -1.5349e-011 -4.21859e-011 1   
     length 1.23343   
     axis -90 -7.62852e-016 -20   XYZ
    dof rx
    limits (-90.0 20.0)
  end
  begin
     id 11 
     name lowerback
     direction 0.0104173 0.993624 -0.112266   
     length 2.00527   
     axis 0 0 0   XYZ
    dof rx ry rz
    limits (-20.0 45.0)
           (-30.0 30.0)
           (-30.0 30.0)
  end
  begin
     id 12 
     name upperback
     direction 0.00733149 0.999856 -0.0152913   
     length 2.01385   
     axis 0 0 0   XYZ
    dof rx ry rz
    limits (-20.0 45.0)
           (-30.0 30.0)
           (-30.0 30.0)
  end
  begin
     id 13 
     name thorax
     direction 0.0026304 0.999318 0.036841   
     length 2.03734   
     axis 0 0 0   XYZ
    dof rx ry rz
    limits (-20.0 45.0)
           (-30.0 30.0)
           (-30.0 30.0)
  end
  begin
     id 14 
     name lowerneck
     direction 0.0293154 0.998757 0.0403082   
     length 1.65303   
     axis 0 0 0   XYZ
    dof rx ry rz
    limits (-20.0 45.0)
           (-30.0 30.0)
           (-30.0 30.0)
  end
  begin
     id 15 
     name upperneck
     direction -0.0376619 0.998184 -0.0470083   
     length 1.60926   
     axis 0 0 0   XYZ
    dof rx ry rz
    limits (-20.0 45.0)
           (-30.0 30.0)
           (-30.0 30.0)
  end
  begin
     id 16
     name head
     direction -0.0170133 0.999635 -0.0209778  
     length 1.73625  
     axis 0 0 0   XYZ
    dof rx ry rz
    limits (-20.0 45.0)
           (-30.0 30.0)
           (-30.0 30.0)
  end
  begin
     id 17 
     name lclavicle
     direction 0.919857 0.39181 -0.0186333  
     length 3.75313  
     axis 0 0 0   XYZ
    dof ry rz
    limits (-20.0 10.0)
           (0.0 20.0)
  end
  begin
     id 18 
     name lhumerus
     direction 1 -4.48988e-011 1.44029e-027   
     length 5.49313   
     axis 180 -30 -90   XYZ
    dof rx ry rz
    limits (-60.0 90.0)
           (-90.0 90.0)
           (-90.0 90.0)
  end
  begin
     id 19
     name lradius
     direction 1 -4.48924e-011 7.46281e-027   
     length 3.29037   
     axis 180 -30 -90   XYZ
    dof rx
    limits (-10.0 170.0)
  end
  begin
     id 20
     name lwrist
     direction 1 -4.48955e-011 2.19879e-026   
     length 1.64519   
     axis -1.34358e-014 90 90   XYZ
    dof ry
    limits (-180.0 0.0)
 end
  begin
     id 21 
     name lhand
     direction 1 -4.48978e-011 4.39747e-026   
     length 0.729656   
     axis -2.80598e-014 90 90   XYZ
    dof rx rz
    limits (-90.0 90.0)
           (-45.0 45.0)
  end
  begin
     id 22 
     name lfingers
     direction 1 -4.49071e-011 8.79411e-026   
     length 0.588268   
     axis -5.61193e-014 90 90   XYZ
    dof rx
    limits (0.0 90.0)
  end
  begin
     id 23
     name lthumb
     direction 0.707107 -6.34817e-011 0.707107   
     length 0.844638   
     axis -90 45 -9.86923e-015   XYZ
    dof rx rz
    limits (-45.0 45.0)
           (-45.0 45.0)
  end
  begin
     id 24 
     name rclavicle
     direction -0.919898 0.388279 0.0550233   
     length 3.7171  
     axis 0 0 0   XYZ 
    dof ry rz
    limits (-10.0 20.0)
           (-20.0 0.0)
  end
  begin
     id 25 
     name rhumerus
     direction -1 -4.48968e-011 9.98372e-028  
     length 5.23684   
     axis 180 30 90   XYZ
    dof rx ry rz
    limits (-90.0 60.0)
           (-90.0 90.0)
           (-90.0 90.0)
  end
  begin
     id 26 
     name rradius
     direction -1 -4.48956e-011 1.01023e-026   
     length 3.38251   
     axis 180 30 90   XYZ
    dof rx
    limits (-10.0 170.0)
  end
  begin
     id 27 
     name rwrist
     direction -1 -4.4892e-011 2.19886e-026   
     length 1.69126   
     axis -1.34358e-014 -90 -90   XYZ
    dof ry
    limits (-180.0 0.0)
  end
  begin
     id 28
     name rhand
     direction -1 -4.49024e-011 4.39727e-026   
     length 0.691454   
     axis -2.80598e-014 -90 -90   XYZ
    dof rx rz
    limits (-90.0 90.0)
           (-45.0 45.0)
  end
  begin
     id 29
     name rfingers
     direction -1 -4.49097e-011 8.79388e-026   
     length 0.557468   
     axis -5.61193e-014 -90 -90   XYZ
    dof rx
    limits (0.0 90.0)
  end
  begin
     id 30
     name rthumb
     direction -0.707107 -6.34938e-011 0.707107   
     length 0.800416   
     axis -90 -45 9.86923e-015   XYZ
    dof rx rz
    limits (-45.0 45.0)
           (-45.0 45.0)
  end
:hierarchy
  begin
    root lhipjoint rhipjoint lowerback
    lhipjoint lfemur
    lfemur ltibia
    ltibia lfoot
    lfoot ltoes
    rhipjoint rfemur
    rfemur rtibia
    rtibia rfoot
    rfoot rtoes
    lowerback upperback
    upperback thorax
    thorax lowerneck lclavicle rclavicle
    lowerneck upperneck
    upperneck head
    lclavicle lhumerus
    lhumerus lradius
    lradius lwrist
    lwrist lhand lthumb
    lhand lfingers
    rclavicle rhumerus
    rhumerus rradius
    rradius rwrist
    rwrist rhand rthumb
    rhand rfingers
  end

#!OML:ASF H:\BabyWalks\Project 1\Capture day 1\Session 1\baby.ASF
:FULLY-SPECIFIED
:DEGREES
225
root -23.3179 17.3228 -2.60027 -26.7371 69.4876 -30.9328
lowerback 22.8524 3.18537 -1.46749
upperback 6.11082 4.09003 -0.674397
thorax -6.05958 2.134 -1.0295
lowerneck 0.816619 3.71682 7.01552
upperneck -15.3535 5.64023 -1.10845
head -4.52819 2.61159 -1.7294
rclavicle -1.98785e-014 3.18055e-014
rhumerus -39.7886 29.0356 -87.1084
rradius 65.7183
rwrist -4.15588
rhand -17.9197 -16.2132
rfingers 7.12502
rthumb 8.34788 -46.0283
lclavicle -1.98785e-014 3.18055e-014
lhumerus -44.8034 -14.8005 77.8442
lradius 48.2374
lwrist -2.36687
lhand -1.10136 6.48591
lfingers 7.12502
lthumb 24.5351 34.934
rfemur -20.8899 5.53584 22.0501
rtibia 56.3494
rfoot -14.3152 14.4893
rtoes -21.075
lfemur -31.0471 8.23433 -4.90366
ltibia 42.1766
lfoot -14.5884 -7.54445
ltoes -3.79851
226
root -23.2391 17.3499 -2.59733 -27.6167 69.6835 -32.0258
lowerback 23.0374 3.01824 -1.41012
upperback 6.11852 3.8894 -0.61436
thorax -6.14672 2.03668 -0.952406
lowerneck 0.767796 3.68351 6.94809
upperneck -15.2941 5.60327 -0.972356
head -4.50967 2.59058 -1.67324
rclavicle -7.15625e-015 -2.54444e-014
rhumerus -39.7379 28.9706 -86.9961
rradius 65.5362
rwrist -3.85086
rhand -17.6684 -16.0872
rfingers 7.12502
rthumb 8.59034 -45.8925
lclavicle -7.15625e-015 -2.54444e-014
lhumerus -43.8563 -14.2055 77.2875
lradius 48.9996
lwrist -2.07547
lhand -2.73779 6.66263
lfingers 7.12502
lthumb 22.9656 35.3147
rfemur -21.7693 4.81377 22.4645
rtibia 55.4411
rfoot -14.6015 14.769
rtoes -21.2843
lfemur -30.976 7.78226 -4.70693
ltibia 42.0638
lfoot -14.7439 -7.35833
ltoes -3.87583
227
root -23.1625 17.3788 -2.59085 -28.654 69.8668 -33.2542
lowerback 23.2498 2.85827 -1.33926
upperback 6.13258 3.70415 -0.524243
thorax -6.24188 1.94698 -0.854944
lowerneck 0.725011 3.6448 6.8795
upperneck -15.2368 5.55953 -0.835544
head -4.49301 2.56619 -1.61669
rclavicle -4.37326e-014 1.90833e-014
rhumerus -39.7377 28.9344 -86.8688
rradius 65.3623
rwrist -3.63332
rhand -17.2929 -15.9445
rfingers 7.12502
rthumb 8.95268 -45.7346
lclavicle -4.37326e-014 1.90833e-014
lhumerus -43.0052 -13.6193 76.7886
lradius 49.9361
lwrist -1.64245
lhand -4.3877 6.82978
lfingers 7.12502
lthumb 21.3816 35.67
rfemur -22.5255 4.15676 22.9848
rtibia 54.2594
rfoot -14.8662 14.8604
rtoes -21.4324
lfemur -30.8557 7.31421 -4.44703
ltibia 41.8962
lfoot -14.8729 -7.1847
ltoes -3.93955
228
root -23.0878 17.4098 -2.58108 -29.7371 70.0661 -34.511
lowerback 23.4722 2.70648 -1.28763
upperback 6.1546 3.52715 -0.424138
thorax -6.33476 1.86187 -0.737156
lowerneck 0.678649 3.59793 6.80466
upperneck -15.1741 5.50593 -0.684119
head -4.47497 2.53666 -1.5542
rclavicle -1.13705e-013 2.22639e-014
rhumerus -39.7755 28.9113 -86.7289
rradius 65.1984
rwrist -3.51357
rhand -16.7999 -15.8016
rfingers 7.12502
rthumb 9.42839 -45.5707
lclavicle -1.13705e-013 2.22639e-014
lhumerus -42.235 -13.066 76.3348
lradius 51.0282
lwrist -1.14522
lhand -5.92816 6.97774
lfingers 7.12502
lthumb 19.9014 35.9787
rfemur -23.171 3.54523 23.5443
rtibia 52.8299
rfoot -15.1107 14.7446
rtoes -21.4416
lfemur -30.6977 6.8299 -4.18547
ltibia 41.6773
lfoot -14.9857 -7.0228
ltoes -3.98223
229
root -23.0142 17.4419 -2.56856 -30.897 70.2501 -35.8257
lowerback 23.7039 2.56336 -1.22105
upperback 6.18557 3.36687 -0.316275
thorax -6.42163 1.78517 -0.623154
lowerneck 0.616016 3.54195 6.71976
upperneck -15.0875 5.4404 -0.508406
head -4.44821 2.50105 -1.48147
rclavicle -6.36111e-015 1.43125e-014
rhumerus -39.8449 28.8953 -86.5846
rradius 65.0353
rwrist -3.47179
rhand -16.2275 -15.6667
rfingers 7.12502
rthumb 9.9807 -45.4101
lclavicle -6.36111e-015 1.43125e-014
lhumerus -41.5281 -12.5553 75.9108
lradius 52.244
lwrist -0.640411
lhand -7.24824 7.07321
lfingers 7.12502
lthumb 18.6321 36.2009
rfemur -23.7064 2.99844 24.161
rtibia 51.1783
rfoot -15.3404 14.4251
rtoes -21.2856
lfemur -30.4975 6.36853 -3.89707
ltibia 41.4157
lfoot -15.083 -6.88976
ltoes -4.02032
230
root -22.9414 17.4749 -2.55366 -32.0886 70.4265 -37.1629
lowerback 23.9273 2.42999 -1.13681
upperback 6.22275 3.22444 -0.213721
thorax -6.49571 1.71733 -0.528368
lowerneck 0.531961 3.4701 6.63831
upperneck -14.5914 5.36337 -0.238864
head -4.78133 2.4533 -1.48731
rclavicle -5.40694e-014 4.77083e-014
rhumerus -39.9423 28.8633 -86.4437
rradius 64.8675
rwrist -3.48929
rhand -15.5941 -15.5543
rfingers 7.12502
rthumb 10.5918 -45.2674
lclavicle -5.40694e-014 4.77083e-014
lhumerus -40.8664 -12.1174 75.5033
lradius 53.5573
lwrist -0.14439
lhand -8.27411 7.11239
lfingers 7.12502
lthumb 17.6451 36.3317
rfemur -24.1481 2.50544 24.8078
rtibia 49.3349
rfoot -15.5538 13.9477
rtoes -20.9786
lfemur -30.27 5.93305 -3.60143
ltibia 41.1189
lfoot -15.1682 -6.78633
ltoes -4.04661
231
root -22.8688 17.5086 -2.53697 -33.2281 70.6307 -38.446
lowerback 24.1359 2.30338 -1.06019
upperback 6.26139 3.08868 -0.129747
thorax -6.55961 1.65302 -0.449724
lowerneck 0.440075 3.38166 6.54726
upperneck -14.4512 5.25268 -0.0202254
head -4.72316 2.39591 -1.38669
rclavicle 3.4191e-014 4.77083e-015
rhumerus -40.0689 28.812 -86.3093
rradius 64.6965
rwrist -3.54801
rhand -14.9239 -15.4736
rfingers 7.12502
rthumb 11.2382 -45.1526
lclavicle 3.4191e-014 4.77083e-015
lhumerus -40.2341 -11.7654 75.1091
lradius 54.933
lwrist 0.343953
lhand -8.98594 7.08249
lfingers 7.12502
lthumb 16.96 36.362
rfemur -24.5144 2.03402 25.4259
rtibia 47.3344
rfoot -15.7322 13.3766
rtoes -20.4954
lfemur -30.0344 5.5082 -3.35186
ltibia 40.7957
lfoot -15.2437 -6.708
ltoes -4.05406
232
root -22.7961 17.5417 -2.51898 -34.3642 70.8466 -39.7324
lowerback 24.3115 2.18158 -0.962844
upperback 6.30605 2.96454 -0.0577675
thorax -6.59831 1.59443 -0.396984
lowerneck 0.327657 3.27534 6.45763
upperneck -14.2742 5.11525 0.209772
head -4.64829 2.32561 -1.28064
rclavicle 2.38542e-015 9.54166e-015
rhumerus -40.21 28.7349 -86.1743
rradius 64.522
rwrist -3.66315
rhand -14.2028 -15.4546
rfingers 7.12502
rthumb 11.9335 -45.0945
lclavicle 2.38542e-015 9.54166e-015
lhumerus -39.6038 -11.5065 74.7285
lradius 56.3401
lwrist 0.849154
lhand -9.39356 6.97276
lfingers 7.12502
lthumb 16.5676 36.2855
rfemur -24.8196 1.59003 26.0351
rtibia 45.214
rfoot -15.8706 12.7512
rtoes -19.8699
lfemur -29.8054 5.10374 -3.12029
ltibia 40.4571
lfoot -15.3068 -6.66013
ltoes -4.03646
233
root -22.7233 17.5743 -2.50017 -35.4484 71.1128 -40.9788
lowerback 24.4507 2.06085 -0.870611
upperback 6.35243 2.84019 -0.00303393
thorax -6.61586 1.536 -0.357985
lowerneck 0.198612 3.15406 6.36942
upperneck -14.0573 4.95324 0.438807
head -4.55588 2.24405 -1.17372
rclavicle -2.38542e-014 -2.70347e-014
rhumerus -40.3697 28.6319 -86.0364
rradius 64.3395
rwrist -3.79937
rhand -13.4805 -15.478
rfingers 7.12502
rthumb 12.63 -45.0761
lclavicle -2.38542e-014 -2.70347e-014
lhumerus -38.9649 -11.3505 74.3704
lradius 57.7524
lwrist 1.412
lhand -9.53731 6.80752
lfingers 7.12502
lthumb 16.4292 36.1318
rfemur -25.1039 1.13937 26.5862
rtibia 43.0738
rfoot -15.9962 12.1261
rtoes -19.1182
lfemur -29.6275 4.6991 -2.95306
ltibia 40.1722
lfoot -15.3944 -6.63356
ltoes -3.9986
234
root -22.6505 17.6053 -2.48119 -36.5014 71.4274 -42.2084
lowerback 24.5679 1.94113 -0.759086
upperback 6.38783 2.72004 0.0297195
thorax -6.63244 1.47927 -0.354246
lowerneck 0.069134 3.01349 6.29504
upperneck -13.7981 4.76084 0.657736
head -4.4481 2.14793 -1.07165
rclavicle -1.11319e-014 3.81667e-014
rhumerus -40.5712 28.4839 -85.9083
rradius 64.1595
rwrist -3.96939
rhand -12.7451 -15.5481
rfingers 7.12502
rthumb 13.3389 -45.1011
lclavicle -1.11319e-014 3.81667e-014
lhumerus -38.3164 -11.3289 74.0369
lradius 59.1487
lwrist 2.06325
lhand -9.46578 6.5991
lfingers 7.12502
lthumb 16.498 35.9177
rfemur -25.3601 0.677652 27.0785
rtibia 40.9037
rfoot -16.0635 11.517
rtoes -18.3527
lfemur -29.4859 4.29554 -2.8461
ltibia 39.8884
lfoot -15.4696 -6.6322
ltoes -3.94514
235
root -22.5764 17.6187 -2.46221 -37.5677 71.8023 -43.4615
lowerback 24.6571 1.81634 -0.635274
upperback 6.42167 2.59634 0.0552981
thorax -6.63595 1.42084 -0.363042
lowerneck -0.064283 2.86051 6.2199
upperneck -13.4985 4.5447 0.852681
head -4.32473 2.04183 -0.976909
rclavicle 7.95139e-015 -2.8625e-014
rhumerus -40.8057 28.3177 -85.7704
rradius 63.9803
rwrist -4.14278
rhand -12.048 -15.6365
rfingers 7.12502
rthumb 14.0108 -45.1443
lclavicle 7.95139e-015 -2.8625e-014
lhumerus -37.6368 -11.4184 73.7453
lradius 60.5021
lwrist 2.80619
lhand -9.2376 6.38161
lfingers 7.12502
lthumb 16.7177 35.6818
rfemur -25.6249 0.187157 27.5012
rtibia 38.7876
rfoot -16.0628 10.9319
rtoes -17.5924
lfemur -29.4286 3.88547 -2.79635
ltibia 39.6587
lfoot -15.536 -6.66407
ltoes -3.86415
236
root -22.5037 17.6465 -2.44405 -38.6772 72.2428 -44.7612
lowerback 24.7401 1.68643 -0.486257
upperback 6.44492 2.47127 0.0694374
thorax -6.64678 1.36143 -0.398181
lowerneck -0.190911 2.69186 6.15469
upperneck -13.1547 4.30042 1.01583
head -4.18651 1.92319 -0.894182
rclavicle -4.37326e-014 4.77083e-015
rhumerus -41.0938 28.1144 -85.6314
rradius 63.8115
rwrist -4.32841
rhand -11.4088 -15.7225
rfingers 7.12502
rthumb 14.6266 -45.1867
lclavicle -4.37326e-014 4.77083e-015
lhumerus -36.9268 -11.6436 73.497
lradius 61.7941
lwrist 3.61947
lhand -8.91026 6.17725
lfingers 7.12502
lthumb 17.0328 35.4505
rfemur -25.8302 -0.329514 27.8569
rtibia 36.7003
rfoot -15.9693 10.365
rtoes -16.8322
lfemur -29.3753 3.45694 -2.81837
ltibia 39.4188
lfoot -15.6068 -6.71854
ltoes -3.75943
237
root -22.4315 17.6698 -2.42643 -39.955 72.7191 -46.2249
lowerback 24.8172 1.54943 -0.284535
upperback 6.46791 2.3516 0.094139
thorax -6.65396 1.30436 -0.453212
lowerneck -0.315707 2.51242 6.09044
upperneck -12.7665 4.03295 1.13684
head -4.03255 1.79525 -0.825488
rclavicle 3.89618e-014 7.95139e-015
rhumerus -41.4217 27.8851 -85.4701
rradius 63.6637
rwrist -4.53969
rhand -10.818 -15.8113
rfingers 7.12502
rthumb 15.1958 -45.2333
lclavicle 3.89618e-014 7.95139e-015
lhumerus -36.1695 -11.9857 73.3026
lradius 62.9993
lwrist 4.44501
lhand -8.53668 5.99897
lfingers 7.12502
lthumb 17.3924 35.2408
rfemur -26.0123 -0.849851 28.1802
rtibia 34.7293
rfoot -15.7708 9.78786
rtoes -16.0572
lfemur -29.373 3.02792 -2.85802
ltibia 39.2276
lfoot -15.6819 -6.81237
ltoes -3.65051
238
root -22.3603 17.6891 -2.40923 -41.4037 73.2548 -47.8533
lowerback 24.8943 1.40448 -0.0485671
upperback 6.4861 2.23125 0.125047
thorax -6.66607 1.24677 -0.520872
lowerneck -0.437639 2.3228 6.02235
upperneck -12.329 3.74364 1.21897
head -3.86182 1.65863 -0.768965
rclavicle -3.26007e-014 3.18055e-015
rhumerus -41.8017 27.6254 -85.2886
rradius 63.5472
rwrist -4.78094
rhand -10.3045 -15.8801
rfingers 7.12502
rthumb 15.6904 -45.264
lclavicle -3.26007e-014 3.18055e-015
lhumerus -35.3661 -12.4481 73.1621
lradius 64.1038
lwrist 5.22002
lhand -8.15899 5.87453
lfingers 7.12502
lthumb 17.7559 35.0839
rfemur -26.145 -1.37661 28.4371
rtibia 32.8409
rfoot -15.3998 9.1792
rtoes -15.252
lfemur -29.4026 2.58453 -2.94283
ltibia 39.0314
lfoot -15.7343 -6.95275
ltoes -3.52083
